<svg width="24" height="24" viewBox="0 0 24 24" fill="none" xmlns="http://www.w3.org/2000/svg">
<path d="M14.25 15.3L15.3 14.25L21 19.95V15H22.5V22.5H15V21H19.95L14.25 15.3ZM9.75 15.3L8.7 14.25L3 19.95V15H1.5V22.5H9V21H4.05L9.75 15.3ZM12.75 12H11.25V4.35L7.8 7.8L6.75 6.75L12 1.5L17.25 6.75L16.2 7.8L12.75 4.35V12Z" fill="#0D237D"/>
<path d="M7.18313 11.9419L11.5581 7.56687C11.6753 7.4497 11.8343 7.38388 12 7.38388C12.1657 7.38388 12.3247 7.4497 12.4419 7.56687L16.8169 11.9419C16.9341 12.0591 17 12.218 17 12.3837V18.375C17 18.5408 16.9342 18.6997 16.8169 18.8169C16.6997 18.9341 16.5408 19 16.375 19H13.25V14.625H10.75V19H7.625C7.45924 19 7.30027 18.9341 7.18306 18.8169C7.06585 18.6997 7 18.5408 7 18.375V12.3837C7.00004 12.218 7.06591 12.0591 7.18313 11.9419Z" fill="#0D237D"/>
</svg>
