<svg width="20" height="20" viewBox="0 0 20 20" fill="none" xmlns="http://www.w3.org/2000/svg">
<path d="M3.177 9.128C2.23303 8.48197 1.53911 7.5318 1.211 6.436C1.111 6.572 1.017 6.713 0.929001 6.859C0.325001 7.858 0 9.063 0 10.499C0 12.706 0.833 14.249 1.68 15.238C2.06607 15.6884 2.5099 16.0858 3 16.42V18.249C2.99987 18.4789 3.04504 18.7066 3.13292 18.919C3.22081 19.1314 3.34969 19.3245 3.51221 19.4871C3.67472 19.6497 3.86769 19.7787 4.08007 19.8667C4.29246 19.9547 4.5201 20 4.75 20H6C6.39782 20 6.77936 19.842 7.06066 19.5607C7.34196 19.2794 7.5 18.8978 7.5 18.5H9.5C9.5 18.8978 9.65804 19.2794 9.93934 19.5607C10.2206 19.842 10.6022 20 11 20H12.25C12.7141 20 13.1592 19.8156 13.4874 19.4874C13.8156 19.1592 14 18.7141 14 18.25V17.567C14.1567 17.5142 14.3114 17.4558 14.464 17.392C15.234 17.0754 15.9356 16.613 16.53 16.03C17.159 15.3956 17.699 14.6787 18.135 13.899C18.1674 13.8344 18.2137 13.7778 18.2706 13.7331C18.3275 13.6885 18.3935 13.6571 18.464 13.641C18.8932 13.5695 19.2831 13.3481 19.5644 13.0161C19.8456 12.6841 20 12.2631 20 11.828V10.075C20 9.232 19.39 8.513 18.56 8.375C18.473 8.36 18.344 8.273 18.283 8.091C18.091 7.514 17.718 6.657 17.03 5.969C16.5342 5.483 15.9767 5.0641 15.372 4.723C15.236 4.645 15.11 4.578 15 4.523V1.67C15 0.732001 13.87 0.347001 13.26 0.954001C12.93 1.283 12.45 1.721 11.919 2.088C11.389 2.454 10.882 2.695 10.465 2.748C10.9595 3.72823 11.1177 4.84396 10.915 5.923C10.734 6.88 10.001 7.485 9.313 7.771L5.617 9.301C4.928 9.586 3.983 9.676 3.177 9.127V9.128ZM14 8.999C13.7348 8.999 13.4804 8.89364 13.2929 8.70611C13.1054 8.51857 13 8.26422 13 7.999C13 7.73378 13.1054 7.47943 13.2929 7.29189C13.4804 7.10436 13.7348 6.999 14 6.999C14.2652 6.999 14.5196 7.10436 14.7071 7.29189C14.8946 7.47943 15 7.73378 15 7.999C15 8.26422 14.8946 8.51857 14.7071 8.70611C14.5196 8.89364 14.2652 8.999 14 8.999ZM3.741 8.302C3.27707 7.98428 2.88523 7.57246 2.59096 7.09332C2.29669 6.61418 2.10658 6.07846 2.033 5.521C1.9585 4.94774 2.00914 4.36514 2.18143 3.81334C2.35372 3.26153 2.64357 2.75362 3.03101 2.32459C3.41846 1.89557 3.89429 1.55562 4.42574 1.32815C4.95719 1.10069 5.53163 0.991128 6.10949 1.007C6.68735 1.02288 7.25491 1.16382 7.77307 1.42011C8.29123 1.67641 8.74768 2.04197 9.11098 2.49162C9.47429 2.94127 9.73582 3.46433 9.87755 4.02476C10.0193 4.5852 10.0379 5.1697 9.932 5.738C9.907 5.868 9.863 5.99 9.802 6.103C9.752 6.196 9.692 6.283 9.622 6.363C9.44 6.573 9.196 6.737 8.93 6.848L5.234 8.378C4.744 8.581 4.179 8.601 3.741 8.302Z" fill="#0D237D"/>
</svg>
