<svg width="85" height="78" viewBox="0 0 85 78" fill="none" xmlns="http://www.w3.org/2000/svg">
<g opacity="0.7">
<rect y="6.3721" width="2.83784" height="2.48311" rx="1.24155" fill="#78B844"/>
<rect x="11.3514" y="6.3721" width="2.83784" height="2.48311" rx="1.24155" fill="#78B844"/>
<rect x="22.7028" y="6.3721" width="2.83784" height="2.48311" rx="1.24155" fill="#78B844"/>
<rect x="34.0541" y="6.3721" width="2.83784" height="2.48311" rx="1.24155" fill="#78B844"/>
<rect x="45.4054" y="6.3721" width="2.83784" height="2.48311" rx="1.24155" fill="#78B844"/>
<rect x="56.7568" y="6.3721" width="2.83784" height="2.48311" rx="1.24155" fill="#78B844"/>
<rect x="68.1083" y="6.3721" width="2.83784" height="2.48311" rx="1.24155" fill="#78B844"/>
<rect x="79.4597" y="6.3721" width="2.83784" height="2.48311" rx="1.24155" fill="#78B844"/>
<rect y="16.3045" width="2.83784" height="2.48311" rx="1.24155" fill="#78B844"/>
<rect x="11.3514" y="16.3045" width="2.83784" height="2.48311" rx="1.24155" fill="#78B844"/>
<rect x="22.7028" y="16.3045" width="2.83784" height="2.48311" rx="1.24155" fill="#78B844"/>
<rect x="34.0541" y="16.3045" width="2.83784" height="2.48311" rx="1.24155" fill="#78B844"/>
<rect x="45.4054" y="16.3045" width="2.83784" height="2.48311" rx="1.24155" fill="#78B844"/>
<rect x="56.7568" y="16.3045" width="2.83784" height="2.48311" rx="1.24155" fill="#78B844"/>
<rect x="68.1083" y="16.3045" width="2.83784" height="2.48311" rx="1.24155" fill="#78B844"/>
<rect x="79.4597" y="16.3045" width="2.83784" height="2.48311" rx="1.24155" fill="#78B844"/>
<rect y="26.237" width="2.83784" height="2.48311" rx="1.24155" fill="#78B844"/>
<rect x="11.3514" y="26.237" width="2.83784" height="2.48311" rx="1.24155" fill="#78B844"/>
<rect x="22.7028" y="26.237" width="2.83784" height="2.48311" rx="1.24155" fill="#78B844"/>
<rect x="34.0541" y="26.237" width="2.83784" height="2.48311" rx="1.24155" fill="#78B844"/>
<rect x="45.4054" y="26.237" width="2.83784" height="2.48311" rx="1.24155" fill="#78B844"/>
<rect x="56.7568" y="26.237" width="2.83784" height="2.48311" rx="1.24155" fill="#78B844"/>
<rect x="68.1083" y="26.237" width="2.83784" height="2.48311" rx="1.24155" fill="#78B844"/>
<rect x="79.4597" y="26.237" width="2.83784" height="2.48311" rx="1.24155" fill="#78B844"/>
<rect y="36.1694" width="2.83784" height="2.48311" rx="1.24155" fill="#78B844"/>
<rect x="11.3514" y="36.1694" width="2.83784" height="2.48311" rx="1.24155" fill="#78B844"/>
<rect x="22.7028" y="36.1694" width="2.83784" height="2.48311" rx="1.24155" fill="#78B844"/>
<rect x="34.0541" y="36.1694" width="2.83784" height="2.48311" rx="1.24155" fill="#78B844"/>
<rect x="45.4054" y="36.1694" width="2.83784" height="2.48311" rx="1.24155" fill="#78B844"/>
<rect x="56.7568" y="36.1694" width="2.83784" height="2.48311" rx="1.24155" fill="#78B844"/>
<rect x="68.1083" y="36.1694" width="2.83784" height="2.48311" rx="1.24155" fill="#78B844"/>
<rect x="79.4597" y="36.1694" width="2.83784" height="2.48311" rx="1.24155" fill="#78B844"/>
<rect y="46.1018" width="2.83784" height="2.48311" rx="1.24155" fill="#78B844"/>
<rect y="55.6813" width="2.83784" height="2.48311" rx="1.24155" fill="#78B844"/>
<rect y="65.2608" width="2.83784" height="2.48311" rx="1.24155" fill="#78B844"/>
<rect y="74.8402" width="2.83784" height="2.48311" rx="1.24155" fill="#78B844"/>
<rect x="11.3514" y="46.1018" width="2.83784" height="2.48311" rx="1.24155" fill="#78B844"/>
<rect x="11.3514" y="55.6813" width="2.83784" height="2.48311" rx="1.24155" fill="#78B844"/>
<rect x="11.3514" y="65.2608" width="2.83784" height="2.48311" rx="1.24155" fill="#78B844"/>
<rect x="11.3514" y="74.8402" width="2.83784" height="2.48311" rx="1.24155" fill="#78B844"/>
<rect x="22.7028" y="46.1018" width="2.83784" height="2.48311" rx="1.24155" fill="#78B844"/>
<rect x="22.7028" y="55.6813" width="2.83784" height="2.48311" rx="1.24155" fill="#78B844"/>
<rect x="22.7028" y="65.2608" width="2.83784" height="2.48311" rx="1.24155" fill="#78B844"/>
<rect x="22.7028" y="74.8402" width="2.83784" height="2.48311" rx="1.24155" fill="#78B844"/>
<rect x="34.0541" y="46.1018" width="2.83784" height="2.48311" rx="1.24155" fill="#78B844"/>
<rect x="34.0541" y="55.6813" width="2.83784" height="2.48311" rx="1.24155" fill="#78B844"/>
<rect x="34.0541" y="65.2608" width="2.83784" height="2.48311" rx="1.24155" fill="#78B844"/>
<rect x="34.0541" y="74.8402" width="2.83784" height="2.48311" rx="1.24155" fill="#78B844"/>
<rect x="45.4054" y="46.1018" width="2.83784" height="2.48311" rx="1.24155" fill="#78B844"/>
<rect x="45.4054" y="55.6813" width="2.83784" height="2.48311" rx="1.24155" fill="#78B844"/>
<rect x="45.4054" y="65.2608" width="2.83784" height="2.48311" rx="1.24155" fill="#78B844"/>
<rect x="45.4054" y="74.8402" width="2.83784" height="2.48311" rx="1.24155" fill="#78B844"/>
<rect x="56.7568" y="46.1018" width="2.83784" height="2.48311" rx="1.24155" fill="#78B844"/>
<rect x="56.7568" y="55.6813" width="2.83784" height="2.48311" rx="1.24155" fill="#78B844"/>
<rect x="56.7568" y="65.2608" width="2.83784" height="2.48311" rx="1.24155" fill="#78B844"/>
<rect x="56.7568" y="74.8402" width="2.83784" height="2.48311" rx="1.24155" fill="#78B844"/>
<rect x="68.1083" y="46.1018" width="2.83784" height="2.48311" rx="1.24155" fill="#78B844"/>
<rect x="68.1083" y="55.6813" width="2.83784" height="2.48311" rx="1.24155" fill="#78B844"/>
<rect x="68.1083" y="65.2608" width="2.83784" height="2.48311" rx="1.24155" fill="#78B844"/>
<rect x="68.1083" y="74.8402" width="2.83784" height="2.48311" rx="1.24155" fill="#78B844"/>
<rect x="79.4597" y="46.1018" width="2.83784" height="2.48311" rx="1.24155" fill="#78B844"/>
<rect x="79.4597" y="55.6813" width="2.83784" height="2.48311" rx="1.24155" fill="#78B844"/>
<rect x="79.4597" y="65.2608" width="2.83784" height="2.48311" rx="1.24155" fill="#78B844"/>
<rect x="79.4597" y="74.8402" width="2.83784" height="2.48311" rx="1.24155" fill="#78B844"/>
</g>
</svg>
