<svg width="32" height="22" viewBox="0 0 32 22" fill="none" xmlns="http://www.w3.org/2000/svg">
<rect x="0.5" y="3" width="31" height="15" rx="3.5" stroke="#0D237D"/>
<path d="M11.056 10.26C11.4133 10.356 11.688 10.5427 11.88 10.82C12.0773 11.092 12.176 11.412 12.176 11.78C12.176 12.26 12.008 12.668 11.672 13.004C11.3307 13.3347 10.8773 13.5 10.312 13.5H7.68V7.588H10.192C10.72 7.588 11.1307 7.73467 11.424 8.028C11.7173 8.32133 11.864 8.66533 11.864 9.06C11.864 9.332 11.7893 9.58 11.64 9.804C11.4907 10.0227 11.296 10.1747 11.056 10.26ZM10.016 8.556H8.76V9.924H9.976C10.2213 9.924 10.4133 9.85733 10.552 9.724C10.696 9.59067 10.768 9.42267 10.768 9.22C10.768 9.03333 10.6987 8.876 10.56 8.748C10.4267 8.62 10.2453 8.556 10.016 8.556ZM8.76 12.524H10.104C10.392 12.524 10.6213 12.444 10.792 12.284C10.9627 12.124 11.048 11.9293 11.048 11.7C11.048 11.4547 10.9627 11.252 10.792 11.092C10.6267 10.932 10.3973 10.852 10.104 10.852H8.76V12.524ZM15.2173 11.78L16.8413 7.588H18.0733L15.6253 13.5H14.7933L12.3213 7.588H13.5773L15.2173 11.78ZM22.7008 11.38V7.588H23.7808V13.5H23.0688L19.8928 9.74V13.5H18.8128V7.588H19.4688L22.7008 11.38Z" fill="#0D237D"/>
<path d="M1.5 21L29 1" stroke="#0D237D"/>
</svg>
