<svg width="32" height="16" viewBox="0 0 32 16" fill="none" xmlns="http://www.w3.org/2000/svg">
<rect x="0.5" y="0.5" width="31" height="15" rx="3.5" stroke="#0D237D"/>
<path d="M11.056 7.76C11.4133 7.856 11.688 8.04267 11.88 8.32C12.0773 8.592 12.176 8.912 12.176 9.28C12.176 9.76 12.008 10.168 11.672 10.504C11.3307 10.8347 10.8773 11 10.312 11H7.68V5.088H10.192C10.72 5.088 11.1307 5.23467 11.424 5.528C11.7173 5.82133 11.864 6.16533 11.864 6.56C11.864 6.832 11.7893 7.08 11.64 7.304C11.4907 7.52267 11.296 7.67467 11.056 7.76ZM10.016 6.056H8.76V7.424H9.976C10.2213 7.424 10.4133 7.35733 10.552 7.224C10.696 7.09067 10.768 6.92267 10.768 6.72C10.768 6.53333 10.6987 6.376 10.56 6.248C10.4267 6.12 10.2453 6.056 10.016 6.056ZM8.76 10.024H10.104C10.392 10.024 10.6213 9.944 10.792 9.784C10.9627 9.624 11.048 9.42933 11.048 9.2C11.048 8.95467 10.9627 8.752 10.792 8.592C10.6267 8.432 10.3973 8.352 10.104 8.352H8.76V10.024ZM15.2173 9.28L16.8413 5.088H18.0733L15.6253 11H14.7933L12.3213 5.088H13.5773L15.2173 9.28ZM22.7008 8.88V5.088H23.7808V11H23.0688L19.8928 7.24V11H18.8128V5.088H19.4688L22.7008 8.88Z" fill="#0D237D"/>
</svg>
